{
    "asset": {
        "generator": "COLLADA2GLTF",
        "version": "2.0"
    },
    "scenes": [
        {
            "nodes": [
                0
            ]
        }
    ],
    "scene": 0,
    "nodes": [
        {
            "children": [
                3,
                2,
                1
            ],
            "matrix": [
                1.0,
                0.0,
                0.0,
                0.0,
                0.0,
                0.0,
                -1.0,
                0.0,
                0.0,
                1.0,
                0.0,
                0.0,
                0.0,
                0.0,
                0.0,
                1.0
            ],
            "name": "Z_UP"
        },
        {
            "mesh": 0,
            "matrix": [
                1.0,
                0.0,
                0.0,
                0.0,
                0.0,
                1.0,
                0.0,
                0.0,
                0.0,
                0.0,
                1.0,
                0.0,
                -8.709203720092774,
                7.724181175231934,
                3.0,
                1.0
            ],
            "name": "381_UBUniversalBeamsUB305x102x25408872"
        },
        {
            "mesh": 1,
            "matrix": [
                1.0,
                0.0,
                0.0,
                0.0,
                0.0,
                1.0,
                0.0,
                0.0,
                0.0,
                0.0,
                1.0,
                0.0,
                0.06095368042588234,
                7.724181175231934,
                0.0,
                1.0
            ],
            "name": "345_UBUniversalBeamsColumnUB838x292x176408849"
        },
        {
            "mesh": 2,
            "matrix": [
                1.0,
                0.0,
                0.0,
                0.0,
                0.0,
                1.0,
                0.0,
                0.0,
                0.0,
                0.0,
                1.0,
                0.0,
                -8.709203720092774,
                7.724181175231934,
                0.0,
                1.0
            ],
            "name": "315_UBUniversalBeamsColumnUB838x292x176408839"
        }
    ],
    "meshes": [
        {
            "primitives": [
                {
                    "attributes": {
                        "NORMAL": 1,
                        "POSITION": 2
                    },
                    "indices": 0,
                    "mode": 4,
                    "material": 0
                }
            ],
            "name": "381_UBUniversalBeamsUB305x102x25408872"
        },
        {
            "primitives": [
                {
                    "attributes": {
                        "NORMAL": 4,
                        "POSITION": 5
                    },
                    "indices": 3,
                    "mode": 4,
                    "material": 1
                }
            ],
            "name": "345_UBUniversalBeamsColumnUB838x292x176408849"
        },
        {
            "primitives": [
                {
                    "attributes": {
                        "NORMAL": 7,
                        "POSITION": 8
                    },
                    "indices": 6,
                    "mode": 4,
                    "material": 2
                }
            ],
            "name": "315_UBUniversalBeamsColumnUB838x292x176408839"
        }
    ],
    "accessors": [
        {
            "bufferView": 0,
            "byteOffset": 0,
            "componentType": 5123,
            "count": 420,
            "max": [
                159
            ],
            "min": [
                0
            ],
            "type": "SCALAR"
        },
        {
            "bufferView": 1,
            "byteOffset": 0,
            "componentType": 5126,
            "count": 160,
            "max": [
                1.0,
                1.0,
                1.0
            ],
            "min": [
                -1.0,
                -1.0,
                -1.0
            ],
            "type": "VEC3"
        },
        {
            "bufferView": 1,
            "byteOffset": 1920,
            "componentType": 5126,
            "count": 160,
            "max": [
                8.763129234313965,
                0.05079999938607216,
                -9.076069838178866e-15
            ],
            "min": [
                0.007028876803815365,
                -0.05079999938607216,
                -0.3050999939441681
            ],
            "type": "VEC3"
        },
        {
            "bufferView": 0,
            "byteOffset": 840,
            "componentType": 5123,
            "count": 420,
            "max": [
                165
            ],
            "min": [
                0
            ],
            "type": "SCALAR"
        },
        {
            "bufferView": 1,
            "byteOffset": 3840,
            "componentType": 5126,
            "count": 166,
            "max": [
                1.0,
                1.0,
                1.0
            ],
            "min": [
                -1.0,
                -1.0,
                -1.0
            ],
            "type": "VEC3"
        },
        {
            "bufferView": 1,
            "byteOffset": 5832,
            "componentType": 5126,
            "count": 166,
            "max": [
                0.14585000276565553,
                0.4174499809741974,
                3.0
            ],
            "min": [
                -0.14585000276565553,
                -0.4174499809741974,
                0.0
            ],
            "type": "VEC3"
        },
        {
            "bufferView": 0,
            "byteOffset": 1680,
            "componentType": 5123,
            "count": 420,
            "max": [
                165
            ],
            "min": [
                0
            ],
            "type": "SCALAR"
        },
        {
            "bufferView": 1,
            "byteOffset": 7824,
            "componentType": 5126,
            "count": 166,
            "max": [
                1.0,
                1.0,
                1.0
            ],
            "min": [
                -1.0,
                -1.0,
                -1.0
            ],
            "type": "VEC3"
        },
        {
            "bufferView": 1,
            "byteOffset": 9816,
            "componentType": 5126,
            "count": 166,
            "max": [
                0.14585000276565553,
                0.4174499809741974,
                3.0
            ],
            "min": [
                -0.14585000276565553,
                -0.4174499809741974,
                0.0
            ],
            "type": "VEC3"
        }
    ],
    "materials": [
        {
            "pbrMetallicRoughness": {
                "baseColorFactor": [
                    0.9686275124549866,
                    0.9686275124549866,
                    0.9686275124549866,
                    1.0
                ],
                "metallicFactor": 0.0
            },
            "name": "270_MetalSteel43275-fx"
        },
        {
            "pbrMetallicRoughness": {
                "baseColorFactor": [
                    0.9686275124549866,
                    0.9686275124549866,
                    0.9686275124549866,
                    1.0
                ],
                "metallicFactor": 0.0
            },
            "name": "270_MetalSteel43275-fx"
        },
        {
            "pbrMetallicRoughness": {
                "baseColorFactor": [
                    0.9686275124549866,
                    0.9686275124549866,
                    0.9686275124549866,
                    1.0
                ],
                "metallicFactor": 0.0
            },
            "name": "270_MetalSteel43275-fx"
        }
    ],
    "bufferViews": [
        {
            "buffer": 0,
            "byteOffset": 11808,
            "byteLength": 2520,
            "target": 34963
        },
        {
            "buffer": 0,
            "byteOffset": 0,
            "byteLength": 11808,
            "byteStride": 12,
            "target": 34962
        }
    ],
    "buffers": [
        {
            "byteLength": 14328,
            "uri": "data:application/octet-stream;base64,"
        }
    ]
}
